<svg width="80" height="80" viewBox="0 0 80 80" fill="none" xmlns="http://www.w3.org/2000/svg">
<g id="hp-2 logo" clip-path="url(#clip0_20_502)">
<path id="Vector" d="M40.0005 80C39.6029 80 39.207 79.993 38.8116 79.9815L46.9864 57.5152H58.2364C60.211 57.5152 62.3786 55.9972 63.054 54.1426L71.9225 29.7822C73.3736 25.7939 71.0892 22.5309 66.8453 22.5309H51.2379L38.1431 58.5154H38.1381L30.714 78.9141C13.1012 74.727 0.000488281 58.8941 0.000488281 40C0.000488281 21.6509 12.356 6.18889 29.201 1.47667L21.5409 22.5309H21.5386L8.80419 57.5152L17.2814 57.5159L28.111 27.7881H34.4823L23.6527 57.5159L32.1268 57.5174L42.219 29.7822C43.6709 25.7939 41.3862 22.5309 37.1462 22.5309H30.0203L38.2023 0.042037C38.7986 0.0155556 39.3975 0 40.0001 0C62.0916 0 80.0001 17.9085 80.0001 40C80.0001 62.0913 62.0916 80 40.0001 80H40.0005ZM64.2027 27.7667H57.8333L48.9134 52.2404H55.2831L64.2027 27.7667Z" fill="black"/>
</g>
<defs>
<clipPath id="clip0_20_502">
<rect width="80" height="80" fill="white"/>
</clipPath>
</defs>
</svg>
